<svg width="22" height="22" viewBox="0 0 22 22" fill="none" xmlns="http://www.w3.org/2000/svg">
<path d="M12.1308 0C13.3682 0.00329983 13.9963 0.00989949 14.5386 0.0252987L14.752 0.0329983C14.9984 0.0417978 15.2415 0.0527972 15.5351 0.0659966C16.7055 0.120994 17.504 0.305784 18.2047 0.577471C18.9307 0.856856 19.5422 1.23524 20.1538 1.84571C20.7131 2.39556 21.1459 3.06069 21.422 3.79481C21.6937 4.49547 21.8785 5.29403 21.9335 6.46547C21.9467 6.75805 21.9577 7.00114 21.9665 7.24863L21.9731 7.46202C21.9896 8.00319 21.9962 8.63126 21.9984 9.86869L21.9995 10.6893V12.1302C22.0022 12.9325 21.9938 13.7348 21.9742 14.5369L21.9676 14.7502C21.9588 14.9977 21.9478 15.2408 21.9346 15.5334C21.8796 16.7048 21.6926 17.5023 21.422 18.2041C21.1467 18.9386 20.7138 19.6039 20.1538 20.1532C19.6038 20.7123 18.9387 21.145 18.2047 21.4214C17.504 21.6931 16.7055 21.8779 15.5351 21.9329C15.2741 21.9452 15.0131 21.9562 14.752 21.9659L14.5386 21.9725C13.9963 21.9879 13.3682 21.9956 12.1308 21.9978L11.3103 21.9989H9.87043C9.06776 22.0016 8.26509 21.9932 7.46265 21.9736L7.24926 21.967C6.98815 21.9571 6.72709 21.9457 6.4661 21.9329C5.29576 21.8779 4.4972 21.6931 3.79544 21.4214C3.06141 21.1457 2.39655 20.7129 1.84744 20.1532C1.28762 19.6035 0.854438 18.9383 0.578105 18.2041C0.306419 17.5034 0.121628 16.7048 0.0666312 15.5334C0.0543765 15.2724 0.043377 15.0113 0.0336329 14.7502L0.0281334 14.5369C0.00786365 13.7348 -0.00130353 12.9325 0.000634668 12.1302V9.86869C-0.00243524 9.0664 0.00563188 8.26409 0.0248335 7.46202L0.0325331 7.24863C0.0413326 7.00114 0.052332 6.75805 0.0655314 6.46547C0.120529 5.29403 0.305319 4.49657 0.577005 3.79481C0.853216 3.05994 1.28726 2.3946 1.84854 1.84571C2.39751 1.28636 3.06194 0.853542 3.79544 0.577471C4.4972 0.305784 5.29466 0.120994 6.4661 0.0659966C6.75869 0.0527972 7.00288 0.0417978 7.24926 0.0329983L7.46265 0.0263986C8.26472 0.00685563 9.06703 -0.00157809 9.86933 0.00109986L12.1308 0ZM11.0001 5.49972C9.54146 5.49972 8.14258 6.07915 7.11118 7.11055C6.07979 8.14195 5.50035 9.54082 5.50035 10.9994C5.50035 12.4581 6.07979 13.8569 7.11118 14.8883C8.14258 15.9197 9.54146 16.4992 11.0001 16.4992C12.4587 16.4992 13.8576 15.9197 14.889 14.8883C15.9204 13.8569 16.4998 12.4581 16.4998 10.9994C16.4998 9.54082 15.9204 8.14195 14.889 7.11055C13.8576 6.07915 12.4587 5.49972 11.0001 5.49972ZM11.0001 7.69961C11.4334 7.69953 11.8625 7.78481 12.2629 7.95058C12.6633 8.11635 13.0271 8.35935 13.3336 8.66572C13.64 8.97208 13.8832 9.33581 14.0491 9.73614C14.215 10.1365 14.3004 10.5655 14.3005 10.9989C14.3005 11.4322 14.2152 11.8613 14.0495 12.2617C13.8837 12.6621 13.6407 13.0259 13.3343 13.3324C13.028 13.6388 12.6642 13.882 12.2639 14.0479C11.8636 14.2138 11.4345 14.2992 11.0012 14.2993C10.126 14.2993 9.28668 13.9516 8.66784 13.3328C8.049 12.7139 7.70134 11.8746 7.70134 10.9994C7.70134 10.1243 8.049 9.28494 8.66784 8.6661C9.28668 8.04727 10.126 7.69961 11.0012 7.69961M16.7759 3.8498C16.4112 3.8498 16.0615 3.99466 15.8037 4.25251C15.5458 4.51036 15.4009 4.86008 15.4009 5.22473C15.4009 5.58939 15.5458 5.93911 15.8037 6.19695C16.0615 6.4548 16.4112 6.59966 16.7759 6.59966C17.1405 6.59966 17.4902 6.4548 17.7481 6.19695C18.0059 5.93911 18.1508 5.58939 18.1508 5.22473C18.1508 4.86008 18.0059 4.51036 17.7481 4.25251C17.4902 3.99466 17.1405 3.8498 16.7759 3.8498Z" fill="#F4F3EE"/>
</svg>
