<svg width="201" height="86" viewBox="0 0 201 86" fill="none" xmlns="http://www.w3.org/2000/svg">
<g clip-path="url(#clip0_48_61)">
<path d="M109.066 41.3684C103.228 41.3885 98.8876 42.0316 95.7471 43.1431C93.4036 43.972 92.4866 44.5992 92.4866 46.7241V69C96.0761 66.4095 99.2615 65.6842 111.829 65.6842V41.3684H109.066ZM73.1445 41.3684C78.9825 41.3885 83.3224 42.0316 86.4629 43.1431C88.8064 43.972 89.7235 44.5992 89.7235 46.7241V69C86.1339 66.4095 82.9485 65.6842 70.3813 65.6842V41.3684H73.1445Z" fill="#413F3F"/>
</g>
<path d="M108.83 53.7273C108.83 55.3277 108.522 56.6842 107.906 57.7969C107.291 58.9096 106.457 59.7547 105.406 60.3324C104.36 60.91 103.186 61.1989 101.884 61.1989C100.577 61.1989 99.4001 60.9077 98.3537 60.3253C97.3073 59.7429 96.4763 58.8977 95.8608 57.7898C95.25 56.6771 94.9446 55.3229 94.9446 53.7273C94.9446 52.1269 95.25 50.7704 95.8608 49.6577C96.4763 48.545 97.3073 47.6998 98.3537 47.1222C99.4001 46.5445 100.577 46.2557 101.884 46.2557C103.186 46.2557 104.36 46.5445 105.406 47.1222C106.457 47.6998 107.291 48.545 107.906 49.6577C108.522 50.7704 108.83 52.1269 108.83 53.7273ZM105.236 53.7273C105.236 52.7803 105.101 51.9801 104.831 51.3267C104.566 50.6733 104.182 50.1785 103.68 49.8423C103.183 49.5062 102.584 49.3381 101.884 49.3381C101.188 49.3381 100.589 49.5062 100.087 49.8423C99.5848 50.1785 99.1989 50.6733 98.929 51.3267C98.6638 51.9801 98.5312 52.7803 98.5312 53.7273C98.5312 54.6742 98.6638 55.4744 98.929 56.1278C99.1989 56.7812 99.5848 57.276 100.087 57.6122C100.589 57.9484 101.188 58.1165 101.884 58.1165C102.584 58.1165 103.183 57.9484 103.68 57.6122C104.182 57.276 104.566 56.7812 104.831 56.1278C105.101 55.4744 105.236 54.6742 105.236 53.7273Z" fill="#F9F8F5"/>
<path d="M86.8295 53.7273C86.8295 55.3277 86.5218 56.6842 85.9062 57.7969C85.2907 58.9096 84.4574 59.7547 83.4062 60.3324C82.3598 60.91 81.1856 61.1989 79.8835 61.1989C78.5767 61.1989 77.4001 60.9077 76.3537 60.3253C75.3073 59.7429 74.4763 58.8977 73.8608 57.7898C73.25 56.6771 72.9446 55.3229 72.9446 53.7273C72.9446 52.1269 73.25 50.7704 73.8608 49.6577C74.4763 48.545 75.3073 47.6998 76.3537 47.1222C77.4001 46.5445 78.5767 46.2557 79.8835 46.2557C81.1856 46.2557 82.3598 46.5445 83.4062 47.1222C84.4574 47.6998 85.2907 48.545 85.9062 49.6577C86.5218 50.7704 86.8295 52.1269 86.8295 53.7273ZM83.2358 53.7273C83.2358 52.7803 83.1009 51.9801 82.831 51.3267C82.5658 50.6733 82.1823 50.1785 81.6804 49.8423C81.1832 49.5062 80.5843 49.3381 79.8835 49.3381C79.1875 49.3381 78.5885 49.5062 78.0866 49.8423C77.5848 50.1785 77.1989 50.6733 76.929 51.3267C76.6638 51.9801 76.5312 52.7803 76.5312 53.7273C76.5312 54.6742 76.6638 55.4744 76.929 56.1278C77.1989 56.7812 77.5848 57.276 78.0866 57.6122C78.5885 57.9484 79.1875 58.1165 79.8835 58.1165C80.5843 58.1165 81.1832 57.9484 81.6804 57.6122C82.1823 57.276 82.5658 56.7812 82.831 56.1278C83.1009 55.4744 83.2358 54.6742 83.2358 53.7273Z" fill="#F9F8F5"/>
<path d="M27.0455 3.80966L31.8182 3.80966V22.7727H27.0455V16.2102H10V10.3722L27.0455 10.3722V3.80966ZM10 26.802H31.8182V32.7252H23.2955V40.5662H31.8182V46.4895H10V40.5662H18.5227V32.7252H10L10 26.802ZM10 51.102H31.8182V66.8264H27.0455V57.0252H23.2955V66.0167H18.5227V57.0252H14.7727V66.7838H10V51.102Z" fill="#413F3F"/>
<path d="M44.9265 30V4.54545H51.0788V25.0036H61.6683V30H44.9265ZM71.0056 4.54545V30H64.8532V4.54545H71.0056ZM74.8679 30V4.54545H85.4822C87.388 4.54545 88.9831 4.81475 90.2674 5.35334C91.56 5.89193 92.5295 6.64595 93.1758 7.61541C93.8304 8.58487 94.1577 9.70762 94.1577 10.9837C94.1577 11.9531 93.9547 12.819 93.5487 13.5813C93.1426 14.3353 92.5833 14.9609 91.8707 15.4581C91.1581 15.9553 90.3337 16.3033 89.3974 16.5021V16.7507C90.4248 16.8004 91.3736 17.078 92.2436 17.5835C93.1219 18.0889 93.8262 18.7932 94.3565 19.6964C94.8868 20.5913 95.152 21.6519 95.152 22.8782C95.152 24.2454 94.804 25.4676 94.108 26.5447C93.4119 27.6136 92.4052 28.4588 91.0877 29.0803C89.7702 29.6934 88.171 30 86.2901 30H74.8679ZM81.0202 25.0408H84.8235C86.1576 25.0408 87.1394 24.7881 87.7692 24.2827C88.4072 23.7772 88.7262 23.0729 88.7262 22.1697C88.7262 21.5152 88.5729 20.9517 88.2663 20.4794C87.9598 19.9988 87.5247 19.6301 86.9613 19.3732C86.3978 19.1081 85.7225 18.9755 84.9354 18.9755H81.0202V25.0408ZM81.0202 15.0107H84.4258C85.0969 15.0107 85.6935 14.8988 86.2156 14.6751C86.7376 14.4513 87.1436 14.1282 87.4336 13.7056C87.7319 13.283 87.881 12.7734 87.881 12.1768C87.881 11.3234 87.5786 10.6522 86.9737 10.1634C86.3688 9.67448 85.5527 9.43004 84.5252 9.43004H81.0202V15.0107ZM98.1101 30V4.54545H108.625C110.531 4.54545 112.176 4.88932 113.559 5.57706C114.951 6.25651 116.024 7.23426 116.778 8.5103C117.532 9.77805 117.909 11.282 117.909 13.022C117.909 14.7869 117.524 16.2867 116.754 17.5213C115.983 18.7476 114.889 19.6839 113.472 20.3303C112.055 20.9683 110.377 21.2873 108.439 21.2873H101.789V16.44H107.295C108.223 16.44 108.998 16.3198 109.619 16.0795C110.249 15.831 110.725 15.4581 111.049 14.9609C111.372 14.4555 111.533 13.8092 111.533 13.022C111.533 12.2348 111.372 11.5844 111.049 11.0707C110.725 10.5487 110.249 10.1592 109.619 9.90234C108.99 9.63719 108.215 9.50462 107.295 9.50462H104.262V30H98.1101ZM112.441 18.3665L118.779 30H112.068L105.853 18.3665H112.441ZM126.79 30H120.178L128.766 4.54545H136.957L145.545 30H138.933L132.955 10.9588H132.756L126.79 30ZM125.907 19.9822H139.729V24.6555H125.907V19.9822ZM148.286 30V4.54545H158.801C160.707 4.54545 162.351 4.88932 163.735 5.57706C165.127 6.25651 166.2 7.23426 166.954 8.5103C167.708 9.77805 168.085 11.282 168.085 13.022C168.085 14.7869 167.7 16.2867 166.929 17.5213C166.159 18.7476 165.065 19.6839 163.648 20.3303C162.231 20.9683 160.553 21.2873 158.614 21.2873H151.965V16.44H157.471C158.399 16.44 159.174 16.3198 159.795 16.0795C160.425 15.831 160.901 15.4581 161.224 14.9609C161.548 14.4555 161.709 13.8092 161.709 13.022C161.709 12.2348 161.548 11.5844 161.224 11.0707C160.901 10.5487 160.425 10.1592 159.795 9.90234C159.165 9.63719 158.391 9.50462 157.471 9.50462H154.438V30H148.286ZM162.616 18.3665L168.955 30H162.244L156.029 18.3665H162.616ZM169.064 4.54545H175.937L181.319 15.1971H181.543L186.924 4.54545H193.798L184.488 21.4986V30H178.373V21.4986L169.064 4.54545Z" fill="#413F3F"/>
<path d="M44.9265 67V41.5455H55.5408C57.4466 41.5455 59.0417 41.8147 60.326 42.3533C61.6186 42.8919 62.5881 43.646 63.2344 44.6154C63.889 45.5849 64.2163 46.7076 64.2163 47.9837C64.2163 48.9531 64.0133 49.819 63.6072 50.5813C63.2012 51.3353 62.6419 51.9609 61.9293 52.4581C61.2167 52.9553 60.3923 53.3033 59.456 53.5021V53.7507C60.4834 53.8004 61.4322 54.078 62.3022 54.5835C63.1805 55.0889 63.8848 55.7932 64.4151 56.6964C64.9454 57.5913 65.2106 58.6519 65.2106 59.8782C65.2106 61.2454 64.8626 62.4676 64.1665 63.5447C63.4705 64.6136 62.4638 65.4588 61.1463 66.0803C59.8288 66.6934 58.2296 67 56.3487 67H44.9265ZM51.0788 62.0408H54.8821C56.2161 62.0408 57.198 61.7881 57.8278 61.2827C58.4658 60.7772 58.7848 60.0729 58.7848 59.1697C58.7848 58.5152 58.6315 57.9517 58.3249 57.4794C58.0183 56.9988 57.5833 56.6301 57.0199 56.3732C56.4564 56.1081 55.7811 55.9755 54.994 55.9755H51.0788V62.0408ZM51.0788 52.0107H54.4844C55.1555 52.0107 55.7521 51.8988 56.2741 51.6751C56.7962 51.4513 57.2022 51.1282 57.4922 50.7056C57.7905 50.283 57.9396 49.7734 57.9396 49.1768C57.9396 48.3234 57.6372 47.6522 57.0323 47.1634C56.4274 46.6745 55.6113 46.43 54.5838 46.43H51.0788V52.0107Z" fill="#413F3F"/>
<path d="M118.926 67V41.5455H125.079V52.3089H125.414L133.829 41.5455H141.075L132.051 52.9055L141.237 67H133.879L127.54 56.9947L125.079 60.1019V67H118.926Z" fill="#413F3F"/>
<defs>
<clipPath id="clip0_48_61">
<rect width="42" height="28" fill="white" transform="translate(70 41)"/>
</clipPath>
</defs>
</svg>
