<svg width="40" height="40" viewBox="0 0 40 40" fill="none" xmlns="http://www.w3.org/2000/svg">
<g clip-path="url(#clip0_35_42)">
<path fill-rule="evenodd" clip-rule="evenodd" d="M20.0002 3.33333C10.7952 3.33333 3.3335 10.795 3.3335 20C3.3335 29.205 10.7952 36.6667 20.0002 36.6667C29.2052 36.6667 36.6668 29.205 36.6668 20C36.6668 10.795 29.2052 3.33333 20.0002 3.33333ZM14.1668 15.8333C14.1668 15.0673 14.3177 14.3087 14.6109 13.601C14.904 12.8933 15.3337 12.2502 15.8754 11.7085C16.417 11.1669 17.0601 10.7372 17.7678 10.444C18.4756 10.1509 19.2341 10 20.0002 10C20.7662 10 21.5247 10.1509 22.2325 10.444C22.9402 10.7372 23.5833 11.1669 24.125 11.7085C24.6666 12.2502 25.0963 12.8933 25.3895 13.601C25.6826 14.3087 25.8335 15.0673 25.8335 15.8333C25.8335 17.3804 25.2189 18.8642 24.125 19.9581C23.031 21.0521 21.5473 21.6667 20.0002 21.6667C18.4531 21.6667 16.9693 21.0521 15.8754 19.9581C14.7814 18.8642 14.1668 17.3804 14.1668 15.8333ZM30.4302 28.3067C29.1826 29.876 27.5965 31.1433 25.7904 32.0137C23.9844 32.8841 22.005 33.3352 20.0002 33.3333C17.9953 33.3352 16.0159 32.8841 14.2099 32.0137C12.4038 31.1433 10.8178 29.876 9.57016 28.3067C12.2718 26.3683 15.9585 25 20.0002 25C24.0418 25 27.7285 26.3683 30.4302 28.3067Z" fill="#413F3F"/>
</g>
<defs>
<clipPath id="clip0_35_42">
<rect width="40" height="40" fill="white"/>
</clipPath>
</defs>
</svg>
